<svg xmlns="http://www.w3.org/2000/svg" xmlns:xlink="http://www.w3.org/1999/xlink" viewBox="0 0 1170.57 590.9"><defs><style>.cls-1{fill:#f39200;}.cls-2{fill:#f9b233;}.cls-3{fill:#1d1d1b;}.cls-4{fill:#1e2a2b;}.cls-5{fill:#f7c48f;}.cls-6{fill:#ec6350;}.cls-7{fill:#fadcb0;}.cls-8{fill:#fcd451;}.cls-9{fill:url(#Degradado_sin_nombre_5);}.cls-10{fill:url(#Degradado_sin_nombre_5-2);}</style><linearGradient id="Degradado_sin_nombre_5" x1="-2837.7" y1="-2888.41" x2="-2832.83" y2="-2888.41" gradientTransform="matrix(2.39, -17.83, -17.83, -2.39, -43904.57, -57198.28)" gradientUnits="userSpaceOnUse"><stop offset="0" stop-color="#f39200"/><stop offset="0.2" stop-color="#f39005"/><stop offset="0.41" stop-color="#f28c12"/><stop offset="0.65" stop-color="#f18429"/><stop offset="0.88" stop-color="#ef7a48"/><stop offset="1" stop-color="#ee745a"/></linearGradient><linearGradient id="Degradado_sin_nombre_5-2" x1="-2851.38" y1="-2786.26" x2="-2846.51" y2="-2786.26" gradientTransform="matrix(-2.39, -17.83, 17.83, -2.39, 43220.75, -57198.28)" xlink:href="#Degradado_sin_nombre_5"/></defs><g id="Capa_2" data-name="Capa 2"><g id="Capa_1-2" data-name="Capa 1"><path class="cls-1" d="M924.82,53.63C846.12,21.59,736.93.19,585.29,0,433.64.19,324.46,21.59,245.74,53.63,4,22.24,40.81,313.82,40.81,313.82c-.13,1.64-1.31,117.05,3.39,267.08q.16,5,.32,10H1126.05c.11-3.35.21-6.69.32-10,4.68-150,3.51-265.44,3.37-267.08C1129.74,313.82,1166.56,22.24,924.82,53.63Z"/><path class="cls-2" d="M154.74,492.38s422.09-106.85,861.08.11c0,0,10-233.67-123.64-410.93,0,0-50.35-45-299.94-45S278.41,81.44,278.41,81.44C144.73,258.7,154.74,492.38,154.74,492.38Z"/><path class="cls-3" d="M126.87,590.9H0l44.2-10,32.62-7.38C97.22,568.9,118.72,576.61,126.87,590.9Z"/><path class="cls-3" d="M1170.57,590.9H1043.72c8.13-14.29,29.61-22,50-17.38l32.62,7.38Z"/><path class="cls-4" d="M1058.12,526.27c-22.12,22-41.8,43.46-60,64.63H172.43c-18.17-21.17-37.84-42.65-60-64.63,0,0,137.69-56.18,472.81-56.18h0C920.41,470.09,1058.12,526.27,1058.12,526.27Z"/><path class="cls-5" d="M982.26,70.4c31.29,16.5,52.86,42.57,68.07,65.71,6,9.19,13.38,18,8.31,28.17-5.81,11.6-24.55,19.33-44.12,18.12-46-2.84-37.22-36.67-40.1-56.71-1.75-13.94-8.41-27.77-16.49-40.75-2.73-4.4-5.44-8.2-.45-12.63C963.09,67.31,974.83,66.43,982.26,70.4Z"/><path class="cls-5" d="M188.31,70.4C157,86.9,135.44,113,120.24,136.11c-6,9.19-13.39,18-8.32,28.17,5.82,11.6,24.56,19.33,44.13,18.12,46-2.84,37.21-36.67,40.09-56.71,1.76-13.94,8.43-27.77,16.5-40.75,2.73-4.4,5.44-8.2.46-12.63C207.48,67.31,195.75,66.43,188.31,70.4Z"/><path class="cls-6" d="M975.34,140.49c.75,18.66,3.3,39.69,39.18,41.91a62.76,62.76,0,0,0,26.45-4c7.11-4.92,11.59-11.35,11.59-18.48,0-15.37-20.18-27.83-45-27.83C994.89,132.09,983.52,135.32,975.34,140.49Z"/><path class="cls-6" d="M195.17,140.49c-.75,18.66-3.3,39.69-39.18,41.91a62.61,62.61,0,0,1-26.43-4c-7.12-4.92-11.59-11.35-11.59-18.48,0-15.37,20.16-27.83,45-27.83C175.63,132.09,187,135.32,195.17,140.49Z"/><path class="cls-7" d="M1042.36,142.5c-8.26-6.3-20.71-10.41-34.84-10.41-12.63,0-24,3.23-32.18,8.4a103.65,103.65,0,0,0,1.07,12.13c7.13,4.12,17,6.7,28,6.7C1022.74,159.32,1038,152.15,1042.36,142.5Z"/><path class="cls-7" d="M128.19,142.46c4.35,9.67,19.62,16.86,38,16.86,10.95,0,20.82-2.55,28-6.66a102,102,0,0,0,1-12.17c-8.18-5.17-19.54-8.4-32.16-8.4C148.88,132.09,136.46,136.18,128.19,142.46Z"/><path class="cls-8" d="M566.85,7.86h36.86a22.91,22.91,0,0,0,0,22.93H566.85A22.81,22.81,0,0,0,566.85,7.86Z"/><path class="cls-6" d="M986.46,463.56C930.92,452,875.17,440.74,818.94,431.12l-21.13-3.41-10.61-1.58c-1.71-.27-3.41-.43-6.06-1a29.65,29.65,0,0,1-6.27-2.21c-7.22-3.63-11-8.14-14.3-12.48a76,76,0,0,1-7.66-13.36c-8-18-11.17-36.18-14-54.32-4.92-36.34-5.39-72.69-4.07-109a862.36,862.36,0,0,1,10.82-108.57q-.23,54.39.65,108.61c.44,18.08.85,36.15,2,54.19q1.31,27.06,4.84,54c2.4,17.9,5.78,35.83,12.53,52.95a68.36,68.36,0,0,0,6.51,12.33c2.64,3.84,6,7.59,10.24,9.74,2.34,1.18,3.42,1.38,7.64,2.07l10.67,1.83,21.18,3.92C878.07,435.76,932.74,449,986.46,463.56Z"/><path class="cls-6" d="M184.1,463.56c53.72-14.55,108.4-27.8,164.54-38.74l21.19-3.92,10.67-1.83c4.22-.69,5.3-.89,7.63-2.07,4.21-2.15,7.61-5.9,10.24-9.74a67.11,67.11,0,0,0,6.51-12.33c6.77-17.12,10.14-35.05,12.55-52.94s4-35.94,4.83-54c1.14-18,1.54-36.11,2-54.19q.79-54.23.65-108.61a862.38,862.38,0,0,1,10.83,108.57c1.31,36.27.84,72.62-4.08,109-2.83,18.14-5.94,36.35-14,54.32A77.2,77.2,0,0,1,410,410.42c-3.32,4.34-7.09,8.85-14.31,12.48a29.19,29.19,0,0,1-6.28,2.21c-2.64.59-4.34.75-6.06,1l-10.6,1.58-21.14,3.41C295.39,440.75,239.65,452,184.1,463.56Z"/><polygon class="cls-9" points="891.49 226.04 890.3 240.35 886.22 308.05 785.23 310.35 790.68 227.68 791.9 215.75 891.49 226.04"/><path class="cls-4" d="M890.3,240.35c-25.9-9.88-59.52-21.17-99.62-12.67l1.22-11.93c40.51-10.71,74.41-1.3,99.59,10.29Z"/><polygon class="cls-10" points="279.08 226.04 280.27 240.35 284.35 308.05 385.34 310.35 379.88 227.68 378.67 215.75 279.08 226.04"/><path class="cls-4" d="M280.27,240.35c25.9-9.88,59.52-21.17,99.61-12.67l-1.21-11.93c-40.51-10.71-74.41-1.3-99.59,10.29Z"/></g></g></svg>